#!OML:ASF Y:\EmotionMaleHayes\Project 1\Capture day 1\Session 1\Male1.ASF
:FULLY-SPECIFIED
:DEGREES
401
root 44.3457 17.3332 -1.62815 -110.789 92.4979 -98.1625
lowerback 9.95585 2.84915 -6.34563
upperback -0.789032 2.95551 -1.93096
thorax -6.65194 1.65596 1.06157
lowerneck -20.0382 0.0956409 3.07544
upperneck 18.0627 -0.676662 -0.311172
head 8.95679 -0.113352 -0.697882
rclavicle -1.67973e-014 1.03368e-014
rhumerus -52.8222 -6.72914 -81.4442
rradius 34.7557
rwrist -13.0974
rhand -19.7101 -31.9902
rfingers 7.12502
rthumb 6.6197 -61.8667
lclavicle -1.67973e-014 1.03368e-014
lhumerus -46.3336 -9.65304 89.8714
lradius 46.8122
lwrist 3.75865
lhand -15.5196 -24.3004
lfingers 7.12502
lthumb 10.6635 5.40903
rfemur 13.9624 -2.40853 8.85371
rtibia 11.6607
rfoot -374.88 -4.55139
rtoes 4.27149
lfemur 14.2876 -0.39718 -20.6398
ltibia 8.77146
lfoot 349.301 6.51365
ltoes -3.82535
402
root 44.3536 17.3385 -1.60343 -121.209 92.2114 -108.659
lowerback 10.1866 2.92341 -6.08043
upperback -0.897598 3.06723 -1.76894
thorax -6.90099 1.70801 1.05078
lowerneck -20.2405 -0.00651729 3.22943
upperneck 18.4566 -0.83004 -0.496821
head 9.12426 -0.18838 -0.809878
rclavicle 7.95139e-015 -1.27222e-014
rhumerus -52.6701 -5.89625 -81.8182
rradius 34.6693
rwrist -12.9073
rhand -20.0299 -31.712
rfingers 7.12502
rthumb 6.31094 -61.598
lclavicle 7.95139e-015 -1.27222e-014
lhumerus -46 -10.4648 90.1948
lradius 47.5342
lwrist 3.39002
lhand -15.4022 -24.5382
lfingers 7.12502
lthumb 10.7768 5.16531
rfemur 13.8258 -1.59544 9.83713
rtibia 11.4509
rfoot -374.834 -5.42845
rtoes 2.61442
lfemur 14.2895 -0.539426 -19.9819
ltibia 8.67603
lfoot 349.159 6.84279
ltoes -2.8091
403
root 44.3928 17.3439 -1.59522 -112.939 92.9547 -100.475
lowerback 10.0253 2.94037 -6.89812
upperback -0.931073 2.99471 -1.99475
thorax -6.87422 1.7018 1.28488
lowerneck -20.0289 -0.0142888 3.1005
upperneck 18.4631 -0.847149 -0.244838
head 9.09086 -0.175493 -0.703419
rclavicle 4.52235e-014 -2.06736e-014
rhumerus -52.6741 -5.21207 -82.0977
rradius 34.8104
rwrist -12.3961
rhand -20.1026 -31.5079
rfingers 7.12502
rthumb 6.24078 -61.396
lclavicle 4.52235e-014 -2.06736e-014
lhumerus -45.6772 -11.2204 90.4373
lradius 48.1454
lwrist 3.1716
lhand -15.3493 -24.8234
lfingers 7.12502
lthumb 10.8278 4.87745
rfemur 14.0721 -1.79342 8.71824
rtibia 11.1205
rfoot -374.736 -5.21691
rtoes 1.81001
lfemur 14.4837 -0.598804 -21.0732
ltibia 8.40663
lfoot 349.029 6.9552
ltoes -1.94904
404
root 44.4236 17.3486 -1.58777 -107.297 93.7772 -94.9573
lowerback 9.97268 2.92504 -7.79085
upperback -1.01027 2.85964 -2.23336
thorax -6.95549 1.67167 1.54902
lowerneck -20.0333 0.0129922 3.08218
upperneck 18.668 -0.819178 -0.170613
head 9.16389 -0.150827 -0.671806
rclavicle 4.47266e-014 -3.18055e-015
rhumerus -52.6099 -4.69608 -82.2299
rradius 34.9554
rwrist -11.4448
rhand -19.9834 -31.5719
rfingers 7.12502
rthumb 6.35581 -61.4566
lclavicle 4.47266e-014 -3.18055e-015
lhumerus -45.3777 -11.8537 90.5818
lradius 48.682
lwrist 2.95505
lhand -15.4395 -25.1068
lfingers 7.12502
lthumb 10.7409 4.59862
rfemur 14.2005 -2.04172 7.51065
rtibia 10.9293
rfoot -374.722 -4.89579
rtoes 2.2306
lfemur 14.5476 -0.610638 -22.2042
ltibia 8.24717
lfoot 348.872 6.98876
ltoes -1.00173
405
root 44.4501 17.355 -1.57375 -110.41 93.7083 -98.1766
lowerback 9.86487 2.90671 -7.80607
upperback -1.02504 2.84604 -2.15594
thorax -6.91364 1.66552 1.64634
lowerneck -20.4695 -0.0193376 3.0138
upperneck 19.206 -0.8836 -0.0710786
head 9.42955 -0.164121 -0.638298
rclavicle -3.52843e-014 2.70347e-014
rhumerus -52.2769 -4.09302 -82.3843
rradius 34.8776
rwrist -10.5111
rhand -20.0594 -31.2121
rfingers 7.12502
rthumb 6.28249 -61.0989
lclavicle -3.52843e-014 2.70347e-014
lhumerus -45.0515 -12.4115 90.6887
lradius 49.2841
lwrist 3.04851
lhand -15.644 -25.4378
lfingers 7.12502
lthumb 10.5436 4.27779
rfemur 14.1933 -1.80118 7.80006
rtibia 10.8375
rfoot -374.821 -4.92241
rtoes 3.32438
lfemur 14.6795 -0.556408 -21.9978
ltibia 7.98813
lfoot 348.81 7.1065
ltoes -0.980237
406
root 44.4617 17.3643 -1.56658 -114.301 93.4669 -102.347
lowerback 9.93904 2.88401 -7.56092
upperback -1.24873 2.82647 -2.04164
thorax -7.18734 1.65825 1.62288
lowerneck -20.3352 0.121337 3.32677
upperneck 19.2063 -0.706622 -0.383492
head 9.40586 -0.0948053 -0.773235
rclavicle 1.23246e-014 1.66979e-014
rhumerus -52.1879 -3.38908 -82.5685
rradius 34.821
rwrist -9.78996
rhand -20.0638 -30.7736
rfingers 7.12502
rthumb 6.27823 -60.6606
lclavicle 1.23246e-014 1.66979e-014
lhumerus -45.0376 -12.9649 90.863
lradius 50.0559
lwrist 3.45044
lhand -15.8704 -25.6561
lfingers 7.12502
lthumb 10.3252 4.0704
rfemur 13.885 -1.78044 8.26108
rtibia 10.9
rfoot -374.892 -4.89605
rtoes 3.15316
lfemur 14.5292 -0.557265 -21.6201
ltibia 7.81062
lfoot 348.872 7.27646
ltoes -1.792
407
root 44.4786 17.3632 -1.55669 -117.304 93.2536 -105.363
lowerback 9.9153 2.87858 -7.30026
upperback -1.13778 2.86311 -1.95149
thorax -7.04778 1.66105 1.57312
lowerneck -20.5218 0.0921559 3.28071
upperneck 19.1444 -0.758761 -0.316151
head 9.4172 -0.116614 -0.749929
rclavicle -1.83876e-014 -2.06736e-014
rhumerus -51.7536 -3.07802 -82.5594
rradius 34.9008
rwrist -8.91272
rhand -19.6921 -30.8076
rfingers 7.12502
rthumb 6.6371 -60.6836
lclavicle -1.83876e-014 -2.06736e-014
lhumerus -44.5106 -13.5204 90.8851
lradius 50.72
lwrist 3.55117
lhand -15.9744 -25.5818
lfingers 7.12502
lthumb 10.2248 4.14971
rfemur 13.994 -1.60243 8.71334
rtibia 10.7838
rfoot -374.997 -4.95978
rtoes 3.61475
lfemur 14.6992 -0.599611 -21.2853
ltibia 7.62332
lfoot 348.876 7.32345
ltoes -2.12384
408
root 44.4956 17.3698 -1.55091 -117.521 93.4363 -105.855
lowerback 9.65371 2.87662 -7.48843
upperback -1.15635 2.86276 -1.94378
thorax -6.92935 1.66611 1.69732
lowerneck -20.6083 0.0777317 3.16159
upperneck 19.1524 -0.75088 -0.296231
head 9.436 -0.119861 -0.722742
rclavicle -6.26172e-015 -3.4191e-014
rhumerus -51.3615 -2.85907 -82.3708
rradius 34.9166
rwrist -8.01021
rhand -19.2846 -30.931
rfingers 7.12502
rthumb 7.03044 -60.7942
lclavicle -6.26172e-015 -3.4191e-014
lhumerus -44.0242 -13.8093 90.831
lradius 51.2383
lwrist 3.11814
lhand -16.3125 -25.576
lfingers 7.12502
lthumb 9.8987 4.1713
rfemur 13.7756 -1.53378 8.57218
rtibia 10.7275
rfoot -375.017 -4.89637
rtoes 4.08436
lfemur 14.5327 -0.61802 -21.5033
ltibia 7.56246
lfoot 348.738 7.37092
ltoes -1.21809
409
root 44.5124 17.3726 -1.54654 -119.315 93.5151 -107.814
lowerback 9.53665 2.88991 -7.46446
upperback -1.18777 2.89256 -1.94415
thorax -6.89757 1.67958 1.68311
lowerneck -20.2921 0.0728271 2.83714
upperneck 18.8618 -0.722479 0.0466477
head 9.28126 -0.0953536 -0.544816
rclavicle -1.88845e-015 -2.70347e-014
rhumerus -51.0036 -2.57351 -82.3253
rradius 34.8144
rwrist -7.48489
rhand -19.164 -30.7993
rfingers 7.12502
rthumb 7.14687 -60.6586
lclavicle -1.88845e-015 -2.70347e-014
lhumerus -43.618 -14.1159 90.7288
lradius 51.7044
lwrist 2.92103
lhand -17.1138 -25.7967
lfingers 7.12502
lthumb 9.12553 3.98592
rfemur 13.6674 -1.5854 8.54383
rtibia 10.639
rfoot -374.893 -4.86383
rtoes 2.81431
lfemur 14.5023 -0.621143 -21.5687
ltibia 7.47661
lfoot 348.683 7.54644
ltoes -0.863922
410
root 44.5255 17.3732 -1.54484 -119.077 93.7643 -107.631
lowerback 9.6612 2.91128 -7.63562
upperback -1.24214 2.88284 -2.01394
thorax -7.03224 1.6852 1.69754
lowerneck -20.5919 0.0355479 3.03445
upperneck 19.169 -0.774973 -0.27026
head 9.43879 -0.13733 -0.696238
rclavicle 1.37161e-014 2.38542e-015
rhumerus -50.8512 -2.31912 -82.2816
rradius 34.983
rwrist -7.05737
rhand -18.9724 -30.5606
rfingers 7.12502
rthumb 7.3318 -60.4136
lclavicle 1.37161e-014 2.38542e-015
lhumerus -43.3134 -14.4593 90.6352
lradius 52.1681
lwrist 3.21618
lhand -17.6516 -25.9997
lfingers 7.12502
lthumb 8.60661 3.8049
rfemur 13.6686 -1.78998 8.18019
rtibia 10.5524
rfoot -374.698 -4.76472
rtoes 1.00909
lfemur 14.5156 -0.618295 -21.9044
ltibia 7.45471
lfoot 348.62 7.68738
ltoes -1.2343
411
root 44.5365 17.374 -1.5386 -121.707 93.7365 -110.278
lowerback 9.55878 2.91285 -7.54159
upperback -1.07296 2.91807 -1.97633
thorax -6.79192 1.68983 1.69087
lowerneck -20.4299 0.215004 2.93192
upperneck 18.7138 -0.592918 0.182986
head 9.25718 -0.0151188 -0.495393
rclavicle -1.00386e-014 5.08889e-014
rhumerus -50.3686 -2.22624 -82.1482
rradius 35.2981
rwrist -6.52726
rhand -18.5892 -30.5794
rfingers 7.12502
rthumb 7.70163 -60.4192
lclavicle -1.00386e-014 5.08889e-014
lhumerus -42.6952 -14.7555 90.4433
lradius 52.6212
lwrist 3.59302
lhand -17.9018 -26.0796
lfingers 7.12502
lthumb 8.36509 3.7348
rfemur 13.7223 -1.65062 8.37776
rtibia 10.4286
rfoot -374.645 -4.8176
rtoes 1.03113
lfemur 14.5673 -0.576253 -21.7397
ltibia 7.42037
lfoot 348.504 7.67179
ltoes -1.59939
412
root 44.5473 17.3755 -1.52145 -127.232 93.4293 -115.851
lowerback 9.89363 2.93334 -7.18104
upperback -1.28953 2.94526 -1.88395
thorax -7.20264 1.70319 1.55971
lowerneck -20.1803 0.231467 3.0939
upperneck 18.7293 -0.596721 0.137693
head 9.21762 -0.00909242 -0.537625
rclavicle 1.21259e-014 -4.53229e-014
rhumerus -50.4651 -2.1335 -82.1051
rradius 35.5999
rwrist -6.35378
rhand -18.4866 -30.5828
rfingers 7.12502
rthumb 7.80071 -60.4189
lclavicle 1.21259e-014 -4.53229e-014
lhumerus -42.8398 -15.0459 90.312
lradius 53.2048
lwrist 3.80102
lhand -18.2411 -26.096
lfingers 7.12502
lthumb 8.03766 3.73112
rfemur 13.7617 -1.0456 9.24049
rtibia 10.2567
rfoot -374.804 -5.21343
rtoes 2.65328
lfemur 14.5833 -0.513779 -21.0067
ltibia 7.38017
lfoot 348.48 7.61641
ltoes -1.78938
413
root 44.5684 17.3753 -1.51869 -128.698 93.128 -117.387
lowerback 9.85338 2.85723 -6.80622
upperback -1.28139 2.89558 -1.81177
thorax -7.14912 1.6631 1.43918
lowerneck -20.3033 0.180206 3.06228
upperneck 18.7723 -0.65284 0.0873193
head 9.25329 -0.0430628 -0.557889
rclavicle -3.8763e-014 1.59028e-014
rhumerus -50.2709 -2.03358 -81.9878
rradius 35.9278
rwrist -6.55622
rhand -18.5118 -30.7018
rfingers 7.12502
rthumb 7.77639 -60.5388
lclavicle -3.8763e-014 1.59028e-014
lhumerus -42.626 -15.2024 90.1712
lradius 53.6934
lwrist 4.0396
lhand -18.532 -26.0978
lfingers 7.12502
lthumb 7.75691 3.73994
rfemur 13.9242 -1.262 9.53276
rtibia 10.055
rfoot -374.793 -5.05672
rtoes 2.83748
lfemur 14.6401 -0.517965 -20.6277
ltibia 7.28496
lfoot 348.548 7.57317
ltoes -1.7577
414
root 44.585 17.3698 -1.52079 -141.149 92.4703 -129.808
lowerback 9.92375 2.76791 -5.72388
upperback -1.22142 2.91218 -1.60367
thorax -7.07633 1.62736 1.05429
lowerneck -20.8479 0.0748185 3.31365
upperneck 19.2511 -0.796755 -0.371946
head 9.5119 -0.137538 -0.781726
rclavicle -8.94531e-015 -4.77083e-015
rhumerus -49.997 -2.11083 -81.7999
rradius 36.2697
rwrist -6.65216
rhand -18.2425 -31.1192
rfingers 7.12502
rthumb 8.0363 -60.9464
lclavicle -8.94531e-015 -4.77083e-015
lhumerus -42.1988 -15.3877 89.9696
lradius 53.9418
lwrist 4.38809
lhand -18.8319 -26.1139
lfingers 7.12502
lthumb 7.46736 3.73432
rfemur 14.149 -1.45415 10.5229
rtibia 9.92214
rfoot -374.87 -4.67916
rtoes 4.52077
lfemur 14.8514 -0.508387 -19.5598
ltibia 7.15162
lfoot 348.594 7.54072
ltoes -2.14899
415
root 44.5937 17.375 -1.51843 -133.331 93.1102 -122.219
lowerback 9.71387 2.83391 -6.4692
upperback -1.23146 2.92 -1.78815
thorax -6.99986 1.65777 1.28179
lowerneck -20.6522 0.119887 3.23606
upperneck 18.9546 -0.761861 -0.110931
head 9.37576 -0.101538 -0.671518
rclavicle 3.47873e-015 -4.77083e-015
rhumerus -49.6416 -2.0924 -81.6649
rradius 36.5546
rwrist -6.89377
rhand -17.8718 -31.3967
rfingers 7.12502
rthumb 8.3941 -61.2099
lclavicle 3.47873e-015 -4.77083e-015
lhumerus -41.7462 -15.5204 89.7461
lradius 54.1198
lwrist 4.54872
lhand -19.1515 -25.9837
lfingers 7.12502
lthumb 7.15892 3.87524
rfemur 13.9208 -1.2646 9.64553
rtibia 9.9099
rfoot -375.025 -4.37304
rtoes 7.024
lfemur 14.59 -0.372987 -20.3941
ltibia 7.22401
lfoot 348.531 7.62427
ltoes -2.64822
